<svg xmlns="http://www.w3.org/2000/svg"  viewBox="0 0 24 24" width="24px" height="24px"><path d="M 4 4 A 3 3 0 0 0 4 10 A 3 3 0 0 0 4 4 z M 11.490234 4 L 0.060546875 20 L 9 20 L 11 17.25 L 11 20 L 19 20 C 21.749516 20 24 17.749516 24 15 C 24 13.280002 23.119715 11.756135 21.787109 10.855469 C 22.532612 10.127544 23 9.1159723 23 8 C 23 5.8026661 21.197334 4 19 4 L 12 4 L 11.490234 4 z M 13 6 L 16.779297 6 C 16.300231 6.5316399 16 7.2279156 16 8 C 16 9.657 17.343 11 19 11 C 16.791 11 15 12.791 15 15 C 15 16.201883 15.541629 17.266738 16.380859 18 L 13 18 L 13 6 z M 19 6 C 20.116666 6 21 6.8833339 21 8 C 21 9.1166661 20.116666 10 19 10 L 19 6 z M 19 12 C 20.668484 12 22 13.331516 22 15 C 22 16.668484 20.668484 18 19 18 L 19 12 z"/></svg>